<svg width="300" height="300" viewBox="0 0 300 300" fill="none" xmlns="http://www.w3.org/2000/svg">
<g opacity="0.88">
<path fill-rule="evenodd" clip-rule="evenodd" d="M83.7944 78.0372H39V129.494C63.2224 129.522 82.85 149.221 82.85 173.518C82.85 197.815 63.2224 217.515 39 217.543V269H83.7836L83.7836 268.948C83.7836 244.634 103.439 224.923 127.684 224.923C151.93 224.923 171.585 244.634 171.585 268.948L171.585 269H216.365V217.423C239.085 215.748 257 196.731 257 173.519C257 150.306 239.085 131.29 216.365 129.614V78.0372H171.574C171.051 54.1791 151.601 35 127.684 35C103.768 35 84.3178 54.1791 83.7944 78.0372Z" fill="#111111"/>
<mask id="path-2-inside-1_158_13951" fill="white">
<path fill-rule="evenodd" clip-rule="evenodd" d="M87.7944 73.0368H43V124.495C67.2223 124.522 86.8499 144.222 86.8499 168.519C86.8499 192.816 67.2223 212.516 43 212.544V264H87.7836L87.7835 263.949C87.7835 239.635 107.438 219.924 131.684 219.924C155.93 219.924 175.585 239.635 175.585 263.949L175.585 264H220.365V212.423C243.085 210.748 261 191.732 261 168.519C261 145.306 243.085 126.29 220.365 124.614V73.0368H175.574C175.05 49.1789 155.601 30 131.684 30C107.768 30 88.3181 49.1789 87.7944 73.0368Z"/>
</mask>
<path fill-rule="evenodd" clip-rule="evenodd" d="M87.7944 73.0368H43V124.495C67.2223 124.522 86.8499 144.222 86.8499 168.519C86.8499 192.816 67.2223 212.516 43 212.544V264H87.7836L87.7835 263.949C87.7835 239.635 107.438 219.924 131.684 219.924C155.93 219.924 175.585 239.635 175.585 263.949L175.585 264H220.365V212.423C243.085 210.748 261 191.732 261 168.519C261 145.306 243.085 126.29 220.365 124.614V73.0368H175.574C175.05 49.1789 155.601 30 131.684 30C107.768 30 88.3181 49.1789 87.7944 73.0368Z" fill="white"/>
<path d="M43 73.0368V70.0368H40V73.0368H43ZM87.7944 73.0368V76.0368H90.7292L90.7937 73.1026L87.7944 73.0368ZM43 124.495H40V127.491L42.9966 127.495L43 124.495ZM43 212.544L42.9966 209.544L40 209.547V212.544H43ZM43 264H40V267H43V264ZM87.7836 264V267H90.7854L90.7836 263.998L87.7836 264ZM87.7835 263.949L84.7835 263.949L84.7835 263.95L87.7835 263.949ZM175.585 263.949L178.585 263.95V263.949H175.585ZM175.585 264L172.585 263.998L172.583 267H175.585V264ZM220.365 264V267H223.365V264H220.365ZM220.365 212.423L220.144 209.432L217.365 209.637V212.423H220.365ZM220.365 124.614H217.365V127.401L220.144 127.606L220.365 124.614ZM220.365 73.0368H223.365V70.0368H220.365V73.0368ZM175.574 73.0368L172.575 73.1026L172.639 76.0368H175.574V73.0368ZM43 76.0368H87.7944V70.0368H43V76.0368ZM46 124.495V73.0368H40V124.495H46ZM89.8499 168.519C89.8499 142.574 68.889 121.524 43.0034 121.495L42.9966 127.495C65.5557 127.52 83.8499 145.87 83.8499 168.519H89.8499ZM43.0034 215.544C68.889 215.514 89.8499 194.464 89.8499 168.519H83.8499C83.8499 191.168 65.5557 209.518 42.9966 209.544L43.0034 215.544ZM46 264V212.544H40V264H46ZM87.7836 261H43V267H87.7836V261ZM84.7835 263.95L84.7836 264.002L90.7836 263.998L90.7835 263.947L84.7835 263.95ZM131.684 216.924C105.774 216.924 84.7835 237.986 84.7835 263.949H90.7835C90.7835 241.283 109.103 222.924 131.684 222.924V216.924ZM178.585 263.949C178.585 237.986 157.595 216.924 131.684 216.924V222.924C154.265 222.924 172.585 241.283 172.585 263.949H178.585ZM178.585 264.002L178.585 263.95L172.585 263.947L172.585 263.998L178.585 264.002ZM220.365 261H175.585V267H220.365V261ZM217.365 212.423V264H223.365V212.423H217.365ZM220.585 215.415C244.868 213.625 264 193.307 264 168.519H258C258 190.156 241.302 207.872 220.144 209.432L220.585 215.415ZM264 168.519C264 143.73 244.868 123.413 220.585 121.623L220.144 127.606C241.302 129.166 258 146.882 258 168.519H264ZM217.365 73.0368V124.614H223.365V73.0368H217.365ZM175.574 76.0368H220.365V70.0368H175.574V76.0368ZM178.573 72.9709C178.014 47.4936 157.243 27 131.684 27V33C153.958 33 172.086 50.8642 172.575 73.1026L178.573 72.9709ZM131.684 27C106.125 27 85.3543 47.4936 84.7951 72.9709L90.7937 73.1026C91.2818 50.8642 109.41 33 131.684 33V27Z" fill="#111111" mask="url(#path-2-inside-1_158_13951)"/>
<circle cx="123.5" cy="118.5" r="4.5" fill="#111111"/>
<circle cx="181.5" cy="118.5" r="4.5" fill="#111111"/>
<path d="M118 146C153 146 154.5 146 185 146" stroke="#111111" stroke-width="3" stroke-linecap="round"/>
</g>
</svg>
